<!DOCTYPE svg PUBLIC "-//W3C//DTD SVG 1.1//EN" "http://www.w3.org/Graphics/SVG/1.1/DTD/svg11.dtd">
<!-- Uploaded to: SVG Repo, www.svgrepo.com, Transformed by: SVG Repo Mixer Tools -->
<svg height="800px" width="800px" version="1.1" id="Layer_1" xmlns="http://www.w3.org/2000/svg" xmlns:xlink="http://www.w3.org/1999/xlink" viewBox="0 0 512 512" xml:space="preserve" fill="#000000">
<g id="SVGRepo_bgCarrier" stroke-width="0"/>
<g id="SVGRepo_tracerCarrier" stroke-linecap="round" stroke-linejoin="round"/>
<g id="SVGRepo_iconCarrier"> <path style="fill:#d94453;" d="M0,256.006C0,397.402,114.606,512.004,255.996,512C397.394,512.004,512,397.402,512,256.006 C512.009,114.61,397.394,0,255.996,0C114.606,0,0,114.614,0,256.006z"/> <path style="fill:#d94453;" d="M476.807,385.505c-22.14-22.14-297.113-297.113-297.113-297.113c-2.762-2.762-7.235-2.762-9.998,0 s-2.762,7.235,0,9.998l157.146,157.146l0.464,0.464l-157.61,157.61c-2.762,2.762-2.762,7.235,0,9.998 c0.29,0.29,0.657,0.423,0.98,0.652c0.228,0.323,0.362,0.691,0.652,0.98c0.29,0.289,84.58,84.58,84.869,84.869 c0.29,0.29,0.657,0.423,0.98,0.652c0.228,0.323,0.362,0.691,0.652,0.98c0.091,0.091,0.206,0.138,0.309,0.206 C351.372,511.181,432.672,460.601,476.807,385.505z"/> <path style="fill:#F4F6F9;" d="M342.303,251.002L179.695,88.393c-2.762-2.762-7.235-2.762-9.997,0s-2.762,7.235,0,9.997L327.307,256 l-157.61,157.61c-2.762,2.762-2.762,7.235,0,9.997c1.381,1.381,3.189,2.071,4.998,2.071s3.618-0.69,4.998-2.071l162.608-162.608 C345.065,258.237,345.065,253.763,342.303,251.002z"/> </g>
</svg>